<svg width="20" height="20" viewBox="0 0 20 20" fill="none" xmlns="http://www.w3.org/2000/svg">
<path d="M11.1291 17.6209H3.22583C2.75825 17.6209 2.37915 17.2416 2.37915 16.7742V3.22577C2.37915 2.75819 2.75845 2.37909 3.22583 2.37909H11.1291C11.5967 2.37909 11.9758 2.75839 11.9758 3.22577V16.7742C11.9758 17.2416 11.5965 17.6209 11.1291 17.6209ZM4.07271 15.9273H10.2825V4.07264H4.07271V15.9273Z" fill="#1F2329"/>
<path d="M16.7743 17.6209H11.1291C10.6616 17.6209 10.2825 17.2416 10.2825 16.7742V8.87091C10.2825 8.40333 10.6618 8.02423 11.1291 8.02423H16.7743C17.2418 8.02423 17.6209 8.40353 17.6209 8.87091V16.7742C17.6209 17.2416 17.2417 17.6209 16.7743 17.6209ZM11.9758 15.9274H15.9274V9.71779H11.9758V15.9274Z" fill="#1F2329"/>
<path d="M17.9033 17.6209H2.09668C1.6291 17.6209 1.25 17.2416 1.25 16.7742C1.25 16.3068 1.6293 15.9276 2.09668 15.9276H17.9031C18.3707 15.9276 18.7498 16.3068 18.7498 16.7742C18.7498 17.2416 18.3707 17.6209 17.9033 17.6209ZM8.30645 8.02423H6.04844C5.58086 8.02423 5.20176 7.64493 5.20176 7.17755C5.20176 6.70997 5.58106 6.33087 6.04844 6.33087H8.30645C8.77402 6.33087 9.15313 6.71017 9.15313 7.17755C9.15332 7.64493 8.77402 8.02423 8.30645 8.02423ZM8.30645 11.9758H6.04844C5.58086 11.9758 5.20176 11.5965 5.20176 11.1291C5.20176 10.6617 5.58106 10.2824 6.04844 10.2824H8.30645C8.77402 10.2824 9.15313 10.6617 9.15313 11.1291C9.15313 11.5965 8.77402 11.9758 8.30645 11.9758Z" fill="#1F2329"/>
</svg>